<?xml version="1.0" encoding="UTF-8"?><svg id="Layer_1" xmlns="http://www.w3.org/2000/svg" viewBox="0 0 220 239.81"><rect width="220" height="220" style="fill:#078;"/><path d="M14.47,101.2L22.36,11.36h21.44l19.6,51.83L82.95,11.36h21.44l7.95,89.85h-20.13l-4.18-53.22h-.52l-18.14,52.69h-11.97l-18.09-52.69h-.52l-4.18,53.22H14.47Z" style="fill:#fff;"/><path d="M131.06,70.6c-1.69-4.69-2.54-9.52-2.54-14.5s.85-9.82,2.54-14.55c1.69-4.73,4.04-8.97,7.04-12.74,3-3.76,6.47-7.07,10.42-9.93,3.94-2.85,8.29-5.05,13.04-6.59,4.75-1.54,9.59-2.31,14.51-2.31,3.57,0,7,.28,10.3,.84,3.29,.56,6.02,1.24,8.17,2.05,2.15,.81,4.05,1.6,5.7,2.39,1.65,.79,2.83,1.46,3.56,2.02l1.14,.84-8.53,17.23c-.21-.14-.49-.33-.83-.58-.35-.24-1.11-.68-2.29-1.31-1.18-.63-2.39-1.19-3.64-1.68-1.25-.49-2.83-.93-4.76-1.31-1.92-.39-3.84-.58-5.75-.58-3.88,0-7.46,.53-10.71,1.58-3.26,1.05-5.99,2.44-8.19,4.18-2.2,1.73-4.08,3.73-5.62,5.99-1.54,2.26-2.67,4.6-3.38,7.01-.71,2.42-1.07,4.83-1.07,7.25s.35,4.89,1.07,7.3c.71,2.42,1.84,4.76,3.38,7.04,1.54,2.28,3.42,4.29,5.62,6.04,2.2,1.75,4.93,3.15,8.19,4.2,3.26,1.05,6.83,1.58,10.71,1.58,1.91,0,3.8-.19,5.7-.58,1.89-.39,3.5-.84,4.84-1.37s2.53-1.06,3.59-1.6,1.85-1.01,2.37-1.39l.78-.58,8.53,17.23c-.28,.21-.67,.5-1.17,.87-.5,.37-1.67,1.02-3.49,1.97-1.82,.95-3.75,1.78-5.8,2.5-2.05,.72-4.73,1.37-8.06,1.97-3.33,.6-6.78,.89-10.35,.89-4.89,0-9.71-.77-14.46-2.31-4.75-1.54-9.1-3.73-13.04-6.57-3.94-2.84-7.42-6.12-10.44-9.85-3.02-3.73-5.38-7.94-7.07-12.63Z" style="fill:#fff;"/><path d="M31.8,208.18V119.4h32.59c4.41,0,8.46,.57,12.14,1.71,3.69,1.14,6.91,2.83,9.68,5.05,2.77,2.23,4.92,5.11,6.45,8.63,1.53,3.53,2.3,7.54,2.3,12.03,0,5.98-1.34,11.14-4.02,15.5-2.68,4.36-6.3,7.63-10.87,9.81-4.57,2.18-9.8,3.27-15.69,3.27h-12.22v32.78H31.8Zm20.37-49.06h5.71c2.15,0,4.11-.19,5.87-.58,1.76-.38,3.4-1,4.92-1.86,1.52-.85,2.7-2.06,3.54-3.63,.85-1.57,1.27-3.43,1.27-5.6,0-1.78-.29-3.36-.87-4.73-.58-1.38-1.35-2.5-2.3-3.37s-2.11-1.59-3.47-2.14c-1.36-.56-2.77-.95-4.23-1.18-1.46-.23-3.04-.34-4.73-.34h-5.71v23.43Z" style="fill:#fff;"/><path d="M133.09,198.67l10.21-16.89c.32,.29,.77,.66,1.35,1.11,.58,.45,1.74,1.27,3.46,2.46,1.73,1.19,3.42,2.24,5.08,3.14,1.66,.9,3.6,1.72,5.82,2.46,2.22,.74,4.27,1.11,6.14,1.11,1.16,0,2.2-.04,3.09-.11s2.01-.28,3.33-.62,2.42-.81,3.28-1.41c.86-.59,1.61-1.48,2.25-2.65s.95-2.57,.95-4.19c0-1.08-.27-2.11-.82-3.08-.55-.97-1.2-1.82-1.96-2.54-.76-.72-1.89-1.52-3.39-2.41-1.5-.88-2.83-1.6-3.99-2.16-1.16-.56-2.8-1.34-4.89-2.35-2.1-1.01-3.8-1.84-5.11-2.49-5.4-2.7-9.58-6.1-12.54-10.2-2.96-4.09-4.44-8.52-4.44-13.28,0-5.22,1.44-9.9,4.31-14.07,2.87-4.16,6.51-7.31,10.9-9.46,4.39-2.14,9.02-3.21,13.89-3.21,3.03,0,6.06,.28,9.07,.84,3.01,.56,5.6,1.23,7.75,2.03,2.15,.79,4.08,1.58,5.79,2.36,1.71,.78,3.01,1.44,3.89,1.98l1.27,.86-8.25,16.02c-.25-.18-.59-.41-1.03-.7-.44-.29-1.33-.79-2.67-1.52-1.34-.72-2.69-1.36-4.05-1.92s-2.99-1.06-4.89-1.51c-1.9-.45-3.72-.68-5.45-.68-3.42,0-6.05,.73-7.88,2.19-1.83,1.46-2.75,3.45-2.75,5.98,0,.61,.11,1.22,.34,1.81,.23,.59,.63,1.19,1.19,1.79,.56,.59,1.11,1.14,1.64,1.62,.53,.49,1.32,1.04,2.38,1.65,1.06,.61,1.96,1.13,2.7,1.54,.74,.42,1.83,.95,3.25,1.6,1.43,.65,2.56,1.16,3.39,1.54,.83,.38,2.09,.93,3.78,1.65,2.65,1.15,5.15,2.52,7.51,4.08,2.36,1.57,4.58,3.39,6.64,5.46s3.7,4.44,4.92,7.11c1.22,2.67,1.83,5.43,1.83,8.28,0,4-.62,7.6-1.85,10.81s-2.89,5.87-4.97,7.97c-2.08,2.1-4.58,3.85-7.49,5.25-2.91,1.4-5.96,2.4-9.15,3-3.19,.6-6.61,.9-10.24,.9-3.92,0-7.74-.38-11.48-1.14-3.74-.76-6.89-1.69-9.44-2.79-2.56-1.09-4.83-2.19-6.83-3.28-1.99-1.09-3.46-2.02-4.42-2.79l-1.43-1.14Z" style="fill:#fff;"/></svg>