<?xml version="1.0" encoding="UTF-8"?><svg id="Layer_1" xmlns="http://www.w3.org/2000/svg" viewBox="0 0 220 220"><rect width="220" height="220" style="fill:#078;"/><g><path d="M28.17,133.07l5.41-61.55h14.69l13.43,35.51,13.39-35.51h14.69l5.45,61.55h-13.79l-2.87-36.46h-.36l-12.43,36.09h-8.2l-12.39-36.09h-.36l-2.87,36.46h-13.79Z" style="fill:#fff;"/><path d="M100.78,133.07v-61.55h22.06c2.98,0,5.73,.4,8.22,1.19,2.5,.79,4.68,1.96,6.56,3.5,1.87,1.54,3.33,3.54,4.37,5.98,1.04,2.45,1.56,5.23,1.56,8.34,0,4.14-.91,7.72-2.72,10.75-1.81,3.02-4.27,5.29-7.36,6.8-3.09,1.51-6.63,2.27-10.62,2.27h-8.27v22.73h-13.79Zm13.79-34.02h3.87c1.46,0,2.78-.13,3.98-.4,1.19-.27,2.3-.7,3.33-1.29,1.03-.59,1.83-1.43,2.4-2.52,.57-1.09,.86-2.38,.86-3.88,0-1.23-.2-2.33-.59-3.28-.39-.96-.91-1.73-1.56-2.34-.65-.6-1.43-1.1-2.35-1.49-.92-.39-1.88-.66-2.87-.82-.99-.16-2.06-.24-3.21-.24h-3.87v16.24Z" style="fill:#fff;"/><path d="M145.41,126.48l6.91-11.71c.21,.2,.52,.46,.91,.77s1.18,.88,2.35,1.71,2.32,1.55,3.44,2.18,2.44,1.19,3.94,1.71,2.89,.77,4.16,.77c.79,0,1.49-.02,2.09-.08,.61-.05,1.36-.19,2.26-.43s1.64-.56,2.22-.98c.58-.41,1.09-1.02,1.52-1.84,.43-.81,.64-1.78,.64-2.91,0-.75-.19-1.46-.55-2.14-.37-.67-.81-1.26-1.33-1.76s-1.28-1.06-2.29-1.67c-1.02-.61-1.92-1.11-2.7-1.5s-1.89-.93-3.31-1.63c-1.42-.7-2.57-1.28-3.46-1.73-3.65-1.88-6.48-4.23-8.49-7.07-2.01-2.84-3.01-5.91-3.01-9.21,0-3.62,.97-6.87,2.92-9.75,1.95-2.89,4.41-5.07,7.38-6.56s6.11-2.23,9.4-2.23c2.05,0,4.1,.19,6.14,.58,2.04,.39,3.79,.86,5.25,1.41,1.46,.55,2.76,1.1,3.92,1.64,1.16,.54,2.04,1,2.63,1.37l.86,.6-5.59,11.11c-.17-.12-.4-.29-.7-.49-.3-.2-.9-.55-1.81-1.05-.91-.5-1.82-.94-2.74-1.33-.92-.39-2.02-.74-3.31-1.05-1.29-.31-2.52-.47-3.69-.47-2.32,0-4.1,.51-5.34,1.52s-1.86,2.39-1.86,4.14c0,.43,.08,.84,.23,1.26,.16,.41,.42,.83,.81,1.24,.38,.41,.75,.79,1.11,1.12,.36,.34,.9,.72,1.61,1.14,.72,.42,1.33,.78,1.83,1.07,.5,.29,1.24,.66,2.2,1.11,.97,.45,1.73,.81,2.29,1.07,.56,.26,1.42,.64,2.56,1.14,1.79,.8,3.49,1.74,5.09,2.83,1.6,1.09,3.1,2.35,4.5,3.79,1.4,1.44,2.51,3.08,3.33,4.93,.82,1.85,1.24,3.76,1.24,5.74,0,2.77-.42,5.27-1.25,7.5-.84,2.23-1.96,4.07-3.37,5.52-1.41,1.46-3.1,2.67-5.07,3.64-1.97,.97-4.04,1.66-6.2,2.08-2.16,.41-4.47,.62-6.93,.62-2.65,0-5.24-.26-7.77-.79-2.53-.53-4.66-1.17-6.39-1.93s-3.27-1.52-4.62-2.28c-1.35-.76-2.35-1.4-2.99-1.93l-.97-.79Z" style="fill:#fff;"/></g></svg>